<?xml version="1.0" encoding="UTF-8" standalone="no"?>
<svg
   xmlns:dc="http://purl.org/dc/elements/1.1/"
   xmlns:cc="http://creativecommons.org/ns#"
   xmlns:rdf="http://www.w3.org/1999/02/22-rdf-syntax-ns#"
   xmlns:svg="http://www.w3.org/2000/svg"
   xmlns="http://www.w3.org/2000/svg"
   id="svg8"
   version="1.1"
   viewBox="0 0 33.866666 33.866668"
   height="128"
   width="128">
  <defs
     id="defs2" />
  <metadata
     id="metadata5">
    <rdf:RDF>
      <cc:Work
         rdf:about="">
        <dc:format>image/svg+xml</dc:format>
        <dc:type
           rdf:resource="http://purl.org/dc/dcmitype/StillImage" />
        <dc:title></dc:title>
      </cc:Work>
    </rdf:RDF>
  </metadata>
  <g
     transform="translate(0,-263.13332)"
     id="layer1">
    <path
       id="path815"
       transform="matrix(0.26458333,0,0,0.26458333,0,263.13332)"
       d="M 59.177734 9 A 55.178574 54.464285 0 0 0 4 63.464844 A 55.178574 54.464285 0 0 0 59.177734 117.92773 A 55.178574 54.464285 0 0 0 71.867188 116.40234 A 53.035714 53.035714 0 0 1 64 117.03516 A 53.035714 53.035714 0 0 1 10.964844 64 A 53.035714 53.035714 0 0 1 64 10.964844 A 53.035714 53.035714 0 0 1 84.207031 14.988281 A 55.178574 54.464285 0 0 0 59.177734 9 z "
       style="fill:#00aaff;fill-opacity:1;stroke:none;stroke-width:1.05496037" />
  </g>
</svg>
